<?xml version="1.0" encoding="UTF-8"?>
<svg id="Layer_1" data-name="Layer 1" xmlns="http://www.w3.org/2000/svg" viewBox="0 0 522.58 314.69">
  <defs>
    <style>
      .cls-1 {
        fill: none;
        stroke: #fff;
        stroke-miterlimit: 10;
        stroke-width: 4.5px;
      }

      .cls-2 {
        fill: #fff;
        fill-rule: evenodd;
      }
    </style>
  </defs>
  <path class="cls-1" d="m2.25,294.39h518.08v9.55c0,4.69-3.81,8.5-8.5,8.5H10.75c-4.69,0-8.5-3.81-8.5-8.5v-9.55h0Z"/>
  <path class="cls-1" d="m62.92,2.25h397.28c7.82,0,14.17,6.35,14.17,14.17v277.96H48.75V16.42c0-7.82,6.35-14.17,14.17-14.17Z"/>
  <path class="cls-2" d="m303.28,108.15l-22.79,22.79,22.79,22.79,22.79-22.79-22.79-22.79Zm-76.69,80.35c18.29,0,29.18-9.09,29.18-21.55,0-10.44-6.51-16.83-16.61-19.3l-21.66-5.27c-8.3-2.02-12.01-6.84-12.01-13.13,0-9.31,8.75-15.26,20.54-15.26,11.11,0,20.2,5.27,21.1,16.94h6.62c-.34-13.69-12.12-22.78-27.72-22.78s-27.04,9.09-27.04,21.21c0,10.32,6.62,16.72,16.72,19.19l21.66,5.27c8.19,2.02,12.01,6.84,12.01,13.13,0,9.65-8.87,15.71-22.67,15.71s-22.56-5.95-23.56-17.28h-6.62c.9,14.92,13.02,23.12,30.07,23.12Zm39.61-.85v-79.5h5.61v79.5h-5.61Z"/>
</svg>